<?xml version="1.0" encoding="UTF-8"?>
<svg width="134px" height="36px" viewBox="0 0 134 36" version="1.1" xmlns="http://www.w3.org/2000/svg" xmlns:xlink="http://www.w3.org/1999/xlink">
    <!-- Generator: Sketch 42 (36781) - http://www.bohemiancoding.com/sketch -->
    <title>Logo</title>
    <desc>Created with Sketch.</desc>
    <defs>
        <polygon id="path-1" points="0 35.3462143 133.208762 35.3462143 133.208762 0.000642857143 0 0.000642857143"></polygon>
    </defs>
    <g id="Page-1" stroke="none" stroke-width="1" fill="none" fill-rule="evenodd">
        <g id="HOME" transform="translate(-150.000000, -45.000000)">
            <g id="Logo" transform="translate(150.000000, 45.000000)">
                <path d="M3.81466095,21.4597286 C3.96525143,23.1337286 5.21208952,24.6174429 7.55389905,24.6174429 C9.36608952,24.6174429 10.3104705,23.6287286 10.3104705,22.4870143 C10.3104705,21.4970143 9.63153714,20.7371571 8.15753714,20.4324429 L5.43797524,19.8243 C2.19134667,19.1004429 0.491460952,16.9700143 0.491460952,14.4204429 C0.491460952,11.1868714 3.43690857,8.44701429 7.2514419,8.44701429 C12.3881086,8.44701429 14.0497086,11.7950143 14.3521657,13.6220143 L10.6499371,14.6865857 C10.4993467,13.6220143 9.70555619,11.9094429 7.2514419,11.9094429 C5.70214667,11.9094429 4.60717524,12.8981571 4.60717524,14.0398714 C4.60717524,15.0298714 5.32567048,15.7524429 6.45765143,15.9800143 L9.25378476,16.5508714 C12.7275752,17.3120143 14.5397657,19.4437286 14.5397657,22.1823 C14.5397657,24.9980143 12.2745276,28.1184429 7.59090857,28.1184429 C2.26536571,28.1184429 0.226013333,24.6174429 0.000127619048,22.5255857 L3.81466095,21.4597286 Z" id="Fill-1" fill="#1D1D1B"></path>
                <path d="M31.9892457,18.2630571 C31.9892457,14.4213429 29.5708648,12.4413429 26.852579,12.4413429 C24.1713029,12.4413429 21.7159124,14.4213429 21.7159124,18.2630571 C21.7159124,22.1060571 24.1713029,24.1606286 26.852579,24.1606286 C29.5708648,24.1606286 31.9892457,22.1446286 31.9892457,18.2630571 M36.4074171,18.2630571 C36.4074171,23.9703429 32.3669981,28.1193429 26.852579,28.1193429 C21.3764457,28.1193429 17.3360267,23.9703429 17.3360267,18.2630571 C17.3360267,12.5943429 21.3764457,8.44662857 26.852579,8.44662857 C32.3669981,8.44662857 36.4074171,12.5943429 36.4074171,18.2630571" id="Fill-3" fill="#1D1D1B"></path>
                <mask id="mask-2" fill="white">
                    <use xlink:href="#path-1"></use>
                </mask>
                <g id="Clip-6"></g>
                <polygon id="Fill-5" fill="#1D1D1B" mask="url(#mask-2)" points="40.6390095 27.5470714 45.0214476 27.5470714 45.0214476 -0.000642857143 40.6390095 -0.000642857143"></polygon>
                <polygon id="Fill-7" fill="#1D1D1B" mask="url(#mask-2)" points="50.685181 27.5483571 55.0280571 27.5483571 55.0280571 9.01864286 50.685181 9.01864286"></polygon>
                <path d="M68.5863048,24.1228286 C71.4564571,24.1228286 73.4588,21.7262571 73.4588,18.1879714 C73.4588,14.6484 71.4947429,12.4421143 68.6245905,12.4421143 C65.7531619,12.4421143 63.6397905,14.6869714 63.6397905,18.2265429 C63.6397905,21.7648286 65.6025714,24.1228286 68.5863048,24.1228286 L68.5863048,24.1228286 Z M77.6893714,24.1614 C77.6893714,25.8354 77.8386857,27.2432571 77.8769714,27.5479714 L73.6846857,27.5479714 C73.6093905,27.1288286 73.4970857,25.9112571 73.4970857,25.1501143 C72.628,26.7109714 70.7009524,28.0044 68.0962476,28.0044 C62.8089905,28.0044 59.2573524,23.8181143 59.2573524,18.2265429 C59.2573524,12.8985429 62.846,8.52325714 68.0209524,8.52325714 C71.2305714,8.52325714 72.8551619,10.0069714 73.4205143,11.1872571 L73.4205143,0.000257142857 L77.6893714,0.000257142857 L77.6893714,24.1614 Z" id="Fill-8" fill="#1D1D1B" mask="url(#mask-2)"></path>
                <path d="M96.081701,17.6936143 C96.081701,14.5346143 94.0806343,12.4800429 91.3610724,12.4800429 C88.564939,12.4800429 86.5638724,14.5346143 86.5638724,17.6936143 C86.5638724,20.9271857 88.4896438,22.9431857 91.3610724,22.9431857 C94.1546533,22.9431857 96.081701,20.8886143 96.081701,17.6936143 L96.081701,17.6936143 Z M86.1491105,27.5087571 C86.4502914,29.7921857 88.2254724,31.5047571 90.7561581,31.5047571 C94.2312248,31.5047571 95.96812,29.7163286 95.96812,25.9491857 L95.96812,24.0090429 C95.1743295,25.4541857 93.3238533,26.7103286 90.6425771,26.7103286 C85.7330724,26.7103286 82.145701,22.9059 82.145701,17.6936143 C82.145701,12.7461857 85.5812057,8.67432857 90.6425771,8.67432857 C93.5127295,8.67432857 95.2879105,9.8559 96.081701,11.3756143 L96.081701,9.01761429 L100.310996,9.01761429 L100.310996,25.7974714 C100.310996,30.7436143 97.7803105,35.3464714 90.869739,35.3464714 C85.99852,35.3464714 82.5987486,32.3044714 82.1074152,28.5746143 L86.1491105,27.5087571 Z" id="Fill-9" fill="#1D1D1B" mask="url(#mask-2)"></path>
                <path d="M118.893606,18.2630571 C118.893606,14.4213429 116.475225,12.4413429 113.756939,12.4413429 C111.075663,12.4413429 108.620272,14.4213429 108.620272,18.2630571 C108.620272,22.1060571 111.075663,24.1606286 113.756939,24.1606286 C116.475225,24.1606286 118.893606,22.1446286 118.893606,18.2630571 M123.311777,18.2630571 C123.311777,23.9703429 119.271358,28.1193429 113.756939,28.1193429 C108.280806,28.1193429 104.240387,23.9703429 104.240387,18.2630571 C104.240387,12.5943429 108.280806,8.44662857 113.756939,8.44662857 C119.271358,8.44662857 123.311777,12.5943429 123.311777,18.2630571" id="Fill-10" fill="#1D1D1B" mask="url(#mask-2)"></path>
                <polygon id="Fill-11" fill="#1D1D1B" mask="url(#mask-2)" points="132.15029 19.5575143 128.978956 19.5575143 127.882709 0.570085714 133.208251 0.570085714"></polygon>
            </g>
        </g>
    </g>
</svg>
